# AST/ASF file generated using VICON BodyLanguage
# -----------------------------------------------
:version 1.10
:name VICON
:units
  mass 1.0
  length 0.45
  angle deg
:documentation
   .ast/.asf automatically generated from VICON data using
   VICON BodyBuilder and BodyLanguage model FoxedUp or BRILLIANT.MOD
:root
   order TX TY TZ RX RY RZ
   axis XYZ
   position 0 0 0  
   orientation 0 0 0 
:bonedata
  begin
     id 1 
     name lhipjoint
     direction 0.440178 -0.822639 0.359871 
     length 2.53113 
     axis 0 0 0  XYZ
  end
  begin
     id 2 
     name lfemur
     direction 0.34202 -0.939693 0  
     length 7.88132  
     axis 0 0 20  XYZ
    dof rx ry rz
    limits (-160.0 20.0)
           (-70.0 70.0)
           (-60.0 70.0)
  end
  begin
     id 3 
     name ltibia
     direction 0.34202 -0.939693 0   
     length 8.43783   
     axis 0 0 20   XYZ
    dof rx
    limits (-10.0 170.0)
  end
  begin
     id 4 
     name lfoot
     direction 0.0886351 -0.243523 0.965837   
     length 2.63414   
     axis -90 7.62852e-016 20   XYZ
    dof rx rz
    limits (-45.0 90.0)
           (-70.0 20.0)
  end
  begin
     id 5 
     name ltoes
     direction 1.53703e-011 -4.21717e-011 1   
     length 1.31427   
     axis -90 7.62852e-016 20   XYZ
    dof rx
    limits (-90.0 20.0)
  end
  begin
     id 6 
     name rhipjoint
     direction -0.399779 -0.839773 0.367367   
     length 2.47948  
     axis 0 0 0  XYZ 
  end
  begin
     id 7 
     name rfemur
     direction -0.34202 -0.939693 0   
     length 7.74806   
     axis 0 0 -20   XYZ
    dof rx ry rz
    limits (-160.0 20.0)
           (-70.0 70.0)
           (-70.0 60.0)
  end
  begin
     id 8 
     name rtibia
     direction -0.34202 -0.939693 0   
     length 8.74432   
     axis 0 0 -20   XYZ
    dof rx
    limits (-10.0 170.0)
 end
 begin
     id 9 
     name rfoot
     direction -0.108514 -0.298139 0.948334   
     length 2.66102  
     axis -90 -7.62852e-016 -20   XYZ
    dof rx rz
    limits (-45.0 90.0)
           (-20.0 70.0)
  end
  begin
     id 10 
     name rtoes
     direction -1.53392e-011 -4.22077e-011 1   
     length 1.31983   
     axis -90 -7.62852e-016 -20   XYZ
    dof rx
    limits (-90.0 20.0)
  end
  begin
     id 11 
     name lowerback
     direction 0.0113257 0.999866 0.0118602   
     length 2.58694   
     axis 0 0 0   XYZ
    dof rx ry rz
    limits (-20.0 45.0)
           (-30.0 30.0)
           (-30.0 30.0)
  end
  begin
     id 12 
     name upperback
     direction -0.0164747 0.995193 -0.0965375   
     length 2.52368   
     axis 0 0 0   XYZ
    dof rx ry rz
    limits (-20.0 45.0)
           (-30.0 30.0)
           (-30.0 30.0)
  end
  begin
     id 13 
     name thorax
     direction -0.0194301 0.99433 -0.104552   
     length 2.56099   
     axis 0 0 0   XYZ
    dof rx ry rz
    limits (-20.0 45.0)
           (-30.0 30.0)
           (-30.0 30.0)
  end
  begin
     id 14 
     name lowerneck
     direction 0.0148543 0.995587 -0.092657   
     length 1.71582   
     axis 0 0 0   XYZ
    dof rx ry rz
    limits (-20.0 45.0)
           (-30.0 30.0)
           (-30.0 30.0)
  end
  begin
     id 15 
     name upperneck
     direction -0.0135467 0.993656 -0.111639   
     length 1.68937   
     axis 0 0 0   XYZ
    dof rx ry rz
    limits (-20.0 45.0)
           (-30.0 30.0)
           (-30.0 30.0)
  end
  begin
     id 16
     name head
     direction -0.00615349 0.999547 -0.029448  
     length 1.7462  
     axis 0 0 0   XYZ
    dof rx ry rz
    limits (-20.0 45.0)
           (-30.0 30.0)
           (-30.0 30.0)
  end
  begin
     id 17 
     name lclavicle
     direction 0.988267 0.149885 0.0293713  
     length 4.47222  
     axis 0 0 0   XYZ
    dof ry rz
    limits (-20.0 10.0)
           (0.0 20.0)
  end
  begin
     id 18 
     name lhumerus
     direction 1 -4.48986e-011 -1.14833e-027   
     length 5.37148   
     axis 180 -30 -90   XYZ
    dof rx ry rz
    limits (-60.0 90.0)
           (-90.0 90.0)
           (-90.0 90.0)
  end
  begin
     id 19
     name lradius
     direction 0.999998 0.00170963 -0.000987055   
     length 3.94212   
     axis 180 -30 -90   XYZ
    dof rx
    limits (-10.0 170.0)
  end
  begin
     id 20
     name lwrist
     direction 0.999998 7.53149e-005 -0.00194706   
     length 1.97106   
     axis 4.65056e-015 90 90   XYZ
    dof ry
    limits (-180.0 0.0)
 end
  begin
     id 21 
     name lhand
     direction 1 -4.48973e-011 -1.31746e-026   
     length 1.17917   
     axis 8.4065e-015 90 90   XYZ
    dof rx rz
    limits (-90.0 90.0)
           (-45.0 45.0)
  end
  begin
     id 22 
     name lfingers
     direction 1 -4.49107e-011 -2.63492e-026   
     length 0.950679   
     axis 1.6813e-014 90 90   XYZ
    dof rx
    limits (0.0 90.0)
  end
  begin
     id 23
     name lthumb
     direction 0.707107 -6.35048e-011 0.707107   
     length 1.36499   
     axis -90 45 2.85299e-015   XYZ
    dof rx rz
    limits (-45.0 45.0)
           (-45.0 45.0)
  end
  begin
     id 24 
     name rclavicle
     direction -0.996699 0.0642895 -0.0495725   
     length 4.62611  
     axis 0 0 0   XYZ 
    dof ry rz
    limits (-10.0 20.0)
           (-20.0 0.0)
  end
  begin
     id 25 
     name rhumerus
     direction -1 -4.48919e-011 -2.41059e-027  
     length 5.4981   
     axis 180 30 90   XYZ
    dof rx ry rz
    limits (-90.0 60.0)
           (-90.0 90.0)
           (-90.0 90.0)
  end
  begin
     id 26 
     name rradius
     direction -0.999999 0.00118101 -0.000681858   
     length 3.48381   
     axis 180 30 90   XYZ
    dof rx
    limits (-10.0 170.0)
  end
  begin
     id 27 
     name rwrist
     direction -0.999999 0.000321823 -0.00132288   
     length 1.7419   
     axis 4.65056e-015 -90 -90   XYZ
    dof ry
    limits (-180.0 0.0)
  end
  begin
     id 28
     name rhand
     direction -1 -4.49022e-011 -1.31746e-026   
     length 1.34932   
     axis 8.4065e-015 -90 -90   XYZ
    dof rx rz
    limits (-90.0 90.0)
           (-45.0 45.0)
  end
  begin
     id 29
     name rfingers
     direction -1 -4.49178e-011 -2.63492e-026   
     length 1.08785   
     axis 1.6813e-014 -90 -90   XYZ
    dof rx
    limits (0.0 90.0)
  end
  begin
     id 30
     name rthumb
     direction -0.707107 -6.34713e-011 0.707107   
     length 1.56195   
     axis -90 -45 -2.85299e-015   XYZ
    dof rx rz
    limits (-45.0 45.0)
           (-45.0 45.0)
  end
:hierarchy
  begin
    root lhipjoint rhipjoint lowerback
    lhipjoint lfemur
    lfemur ltibia
    ltibia lfoot
    lfoot ltoes
    rhipjoint rfemur
    rfemur rtibia
    rtibia rfoot
    rfoot rtoes
    lowerback upperback
    upperback thorax
    thorax lowerneck lclavicle rclavicle
    lowerneck upperneck
    upperneck head
    lclavicle lhumerus
    lhumerus lradius
    lradius lwrist
    lwrist lhand lthumb
    lhand lfingers
    rclavicle rhumerus
    rhumerus rradius
    rradius rwrist
    rwrist rhand rthumb
    rhand rfingers
  end

#!OML:ASF X:\für Bonn\!DataBase\2005_08_10_Bjorn_Final\c3d\bjorn.ASF
:FULLY-SPECIFIED
:DEGREES
1
root -21.5521 19.4814 0.234881 -361.107 -88.326 8.31466
lowerback -11.5554 1.71062 -0.769374
upperback 4.74248 2.63694 -2.2652
thorax 11.752 1.28504 -1.46937
lowerneck -2.93765 -2.15938 7.27492
upperneck 2.65569 -2.99093 -6.83695
head 1.14188 -1.53663 -3.56804
rclavicle -1.8487e-014 1.66979e-014
rhumerus -33.0377 -30.2643 -80.4887
rradius 17.8311
rwrist 21.576
rhand -3.29995 0.223758
rfingers 7.12502
rthumb 22.4261 -28.4943
lclavicle -1.8487e-014 1.66979e-014
lhumerus -39.8533 55.4046 56.5334
lradius 13.7198
lwrist -71.7873
lhand -12.0393 -5.96156
lfingers 7.12502
lthumb 14.0192 23.5457
rfemur -14.7487 -15.7327 16.9212
rtibia 24.8727
rfoot -9.15989 19.629
rtoes 3.95083
lfemur -14.3303 14.2407 -18.3744
ltibia 24.0402
lfoot -7.98272 -17.6242
ltoes 3.57084
2
root -21.5568 19.4807 0.232423 -360.856 -88.178 8.05808
lowerback -11.5742 1.69518 -0.837482
upperback 4.73983 2.63262 -2.3193
thorax 11.7601 1.27992 -1.4906
lowerneck -2.91567 -2.25403 7.16796
upperneck 2.51011 -3.11652 -6.88047
head 1.08168 -1.60163 -3.56053
rclavicle 3.1408e-014 -6.36111e-015
rhumerus -33.1254 -28.1432 -81.8755
rradius 19.7443
rwrist 19.0793
rhand -4.36788 0.713786
rfingers 7.12502
rthumb 21.4007 -28.1243
lclavicle 3.1408e-014 -6.36111e-015
lhumerus -38.7979 54.1922 57.9569
lradius 13.7469
lwrist -70.0728
lhand -12.4754 -6.31596
lfingers 7.12502
lthumb 13.5988 23.2199
rfemur -14.705 -15.7747 16.915
rtibia 24.8798
rfoot -9.23448 19.5387
rtoes 3.93682
lfemur -14.3238 14.0854 -18.363
ltibia 24.0512
lfoot -8.00255 -17.6208
ltoes 3.55673
3
root -21.5619 19.4798 0.230211 -360.232 -88.0377 7.42019
lowerback -11.5981 1.68186 -0.891087
upperback 4.74412 2.62848 -2.36674
thorax 11.7796 1.27565 -1.51258
lowerneck -2.8791 -2.34744 7.01374
upperneck 2.34001 -3.23976 -6.88773
head 1.0124 -1.66504 -3.53039
rclavicle 2.90226e-014 -1.66979e-014
rhumerus -33.4023 -26.2248 -83.0849
rradius 21.861
rwrist 16.6187
rhand -5.69247 1.31279
rfingers 7.12502
rthumb 20.128 -27.6645
lclavicle 2.90226e-014 -1.66979e-014
lhumerus -37.5619 52.6332 59.6619
lradius 13.8305
lwrist -68.3608
lhand -12.9327 -6.4935
lfingers 7.12502
lthumb 13.1581 23.0713
rfemur -14.6505 -15.8196 16.9214
rtibia 24.885
rfoot -9.28867 19.4585
rtoes 3.92482
lfemur -14.3074 13.9364 -18.3373
ltibia 24.0658
lfoot -8.05129 -17.6058
ltoes 3.42998
4
root -21.5673 19.4786 0.227755 -360.067 -87.9044 7.22681
lowerback -11.6035 1.66318 -0.966614
upperback 4.75272 2.62026 -2.41517
thorax 11.7916 1.26778 -1.52465
lowerneck -2.82249 -2.43472 6.86718
upperneck 2.1292 -3.35566 -6.90899
head 0.927056 -1.72455 -3.50535
rclavicle -3.16068e-014 2.3059e-014
rhumerus -33.8374 -24.5698 -84.1116
rradius 24.1709
rwrist 14.3353
rhand -7.19555 1.98258
rfingers 7.12502
rthumb 18.6827 -27.1402
lclavicle -3.16068e-014 2.3059e-014
lhumerus -36.3777 50.9302 61.37
lradius 13.9671
lwrist -66.7501
lhand -13.3996 -6.64255
lfingers 7.12502
lthumb 12.7079 22.9508
rfemur -14.5771 -15.8433 16.9085
rtibia 24.8885
rfoot -9.36773 19.3664
rtoes 3.88332
lfemur -14.2733 13.7955 -18.3184
ltibia 24.0813
lfoot -8.07858 -17.6039
ltoes 3.43345
5
root -21.5725 19.4775 0.225713 -360.017 -87.7797 7.16352
lowerback -11.6536 1.64462 -1.03236
upperback 4.77371 2.61351 -2.47714
thorax 11.8461 1.26168 -1.55577
lowerneck -2.77626 -2.52015 6.76314
upperneck 1.91423 -3.47161 -6.95539
head 0.841577 -1.78404 -3.4974
rclavicle -3.61788e-014 4.85035e-014
rhumerus -34.3453 -23.0631 -85.0595
rradius 26.6585
rwrist 12.044
rhand -8.64742 2.68198
rfingers 7.12502
rthumb 17.2858 -26.5693
lclavicle -3.61788e-014 4.85035e-014
lhumerus -35.0625 48.7682 63.3149
lradius 14.2067
lwrist -64.9467
lhand -13.897 -6.74111
lfingers 7.12502
lthumb 12.2284 22.8814
rfemur -14.5211 -15.8265 16.8956
rtibia 24.8892
rfoot -9.45903 19.2394
rtoes 3.80964
lfemur -14.2609 13.6619 -18.3132
ltibia 24.1015
lfoot -8.13056 -17.5884
ltoes 3.30436
6
root -21.5776 19.4765 0.223509 -359.561 -87.6457 6.68567
lowerback -11.6728 1.62251 -1.09393
upperback 4.77964 2.59877 -2.52438
thorax 11.8639 1.25171 -1.57558
lowerneck -2.72163 -2.60267 6.59786
upperneck 1.72231 -3.58123 -6.97021
head 0.764185 -1.84003 -3.46681
rclavicle -7.35503e-015 -4.77083e-015
rhumerus -34.9764 -21.7228 -85.8576
rradius 29.3335
rwrist 9.78023
rhand -9.86862 3.31423
rfingers 7.12502
rthumb 16.1102 -26.0362
lclavicle -7.35503e-015 -4.77083e-015
lhumerus -33.8227 46.1903 65.3501
lradius 14.5833
lwrist -62.9674
lhand -14.2666 -6.73729
lfingers 7.12502
lthumb 11.872 22.9061
rfemur -14.4513 -15.821 16.8997
rtibia 24.8901
rfoot -9.55394 19.1163
rtoes 3.73598
lfemur -14.2377 13.5196 -18.2814
ltibia 24.1223
lfoot -8.1741 -17.5869
ltoes 3.29017
7
root -21.583 19.4754 0.221608 -358.893 -87.5359 6.00314
lowerback -11.7143 1.61357 -1.13721
upperback 4.79436 2.60014 -2.57583
thorax 11.9068 1.25084 -1.60638
lowerneck -2.65763 -2.68722 6.48633
upperneck 1.4944 -3.69651 -7.02888
head 0.671891 -1.89874 -3.46097
rclavicle -1.98785e-014 2.06736e-014
rhumerus -35.6615 -20.6252 -86.5312
rradius 32.1431
rwrist 7.70638
rhand -10.8537 3.89762
rfingers 7.12502
rthumb 15.1614 -25.527
lclavicle -1.98785e-014 2.06736e-014
lhumerus -32.727 43.5174 67.2594
lradius 15.0063
lwrist -61.1188
lhand -14.6388 -6.71426
lfingers 7.12502
lthumb 11.5131 22.9496
rfemur -14.3931 -15.7972 16.9187
rtibia 24.8896
rfoot -9.64353 18.997
rtoes 3.66433
lfemur -14.2227 13.4027 -18.2438
ltibia 24.1453
lfoot -8.2182 -17.5708
ltoes 3.20091
